G04 #@! TF.GenerationSoftware,KiCad,Pcbnew,5.99.0-unknown-8eca23aabe~115~ubuntu20.04.1*
G04 #@! TF.CreationDate,2021-02-02T12:21:53+00:00*
G04 #@! TF.ProjectId,dvi_pmod,6476695f-706d-46f6-942e-6b696361645f,rev?*
G04 #@! TF.SameCoordinates,Original*
G04 #@! TF.FileFunction,Soldermask,Top*
G04 #@! TF.FilePolarity,Negative*
%FSLAX46Y46*%
G04 Gerber Fmt 4.6, Leading zero omitted, Abs format (unit mm)*
G04 Created by KiCad (PCBNEW 5.99.0-unknown-8eca23aabe~115~ubuntu20.04.1) date 2021-02-02 12:21:53*
%MOMM*%
%LPD*%
G01*
G04 APERTURE LIST*
G04 Aperture macros list*
%AMRoundRect*
0 Rectangle with rounded corners*
0 $1 Rounding radius*
0 $2 $3 $4 $5 $6 $7 $8 $9 X,Y pos of 4 corners*
0 Add a 4 corners polygon primitive as box body*
4,1,4,$2,$3,$4,$5,$6,$7,$8,$9,$2,$3,0*
0 Add four circle primitives for the rounded corners*
1,1,$1+$1,$2,$3*
1,1,$1+$1,$4,$5*
1,1,$1+$1,$6,$7*
1,1,$1+$1,$8,$9*
0 Add four rect primitives between the rounded corners*
20,1,$1+$1,$2,$3,$4,$5,0*
20,1,$1+$1,$4,$5,$6,$7,0*
20,1,$1+$1,$6,$7,$8,$9,0*
20,1,$1+$1,$8,$9,$2,$3,0*%
G04 Aperture macros list end*
%ADD10R,1.700000X1.700000*%
%ADD11O,1.700000X1.700000*%
%ADD12R,1.900000X0.300000*%
%ADD13C,1.900000*%
%ADD14RoundRect,0.147500X0.147500X0.172500X-0.147500X0.172500X-0.147500X-0.172500X0.147500X-0.172500X0*%
%ADD15RoundRect,0.147500X-0.147500X-0.172500X0.147500X-0.172500X0.147500X0.172500X-0.147500X0.172500X0*%
G04 APERTURE END LIST*
D10*
X131445000Y-70000000D03*
D11*
X128905000Y-70000000D03*
X131445000Y-72540000D03*
X128905000Y-72540000D03*
X131445000Y-75080000D03*
X128905000Y-75080000D03*
X131445000Y-77620000D03*
X128905000Y-77620000D03*
X131445000Y-80160000D03*
X128905000Y-80160000D03*
X131445000Y-82700000D03*
X128905000Y-82700000D03*
D12*
X136362000Y-72000000D03*
X136362000Y-72500000D03*
X136362000Y-73000000D03*
X136362000Y-73500000D03*
X136362000Y-74000000D03*
X136362000Y-74500000D03*
X136362000Y-75000000D03*
X136362000Y-75500000D03*
X136362000Y-76000000D03*
X136362000Y-76500000D03*
X136362000Y-77000000D03*
X136362000Y-77500000D03*
X136362000Y-78000000D03*
X136362000Y-78500000D03*
X136362000Y-79000000D03*
X136362000Y-79500000D03*
X136362000Y-80000000D03*
X136362000Y-80500000D03*
X136362000Y-81000000D03*
D13*
X137262000Y-69500000D03*
X142162000Y-68900000D03*
X142162000Y-84600000D03*
X137262000Y-84000000D03*
D14*
X133997000Y-72000000D03*
X133027000Y-72000000D03*
X133997000Y-73900000D03*
X133027000Y-73900000D03*
X133997000Y-75800000D03*
X133027000Y-75800000D03*
X133997000Y-77700000D03*
X133027000Y-77700000D03*
D15*
X133027000Y-72950000D03*
X133997000Y-72950000D03*
X133027000Y-74850000D03*
X133997000Y-74850000D03*
X133027000Y-76750000D03*
X133997000Y-76750000D03*
X133027000Y-78650000D03*
X133997000Y-78650000D03*
M02*
