G04 #@! TF.GenerationSoftware,KiCad,Pcbnew,5.99.0-unknown-8eca23aabe~115~ubuntu20.04.1*
G04 #@! TF.CreationDate,2021-02-02T12:21:53+00:00*
G04 #@! TF.ProjectId,dvi_pmod,6476695f-706d-46f6-942e-6b696361645f,rev?*
G04 #@! TF.SameCoordinates,Original*
G04 #@! TF.FileFunction,Legend,Bot*
G04 #@! TF.FilePolarity,Positive*
%FSLAX46Y46*%
G04 Gerber Fmt 4.6, Leading zero omitted, Abs format (unit mm)*
G04 Created by KiCad (PCBNEW 5.99.0-unknown-8eca23aabe~115~ubuntu20.04.1) date 2021-02-02 12:21:53*
%MOMM*%
%LPD*%
G01*
G04 APERTURE LIST*
%ADD10C,0.150000*%
%ADD11C,0.120000*%
G04 APERTURE END LIST*
D10*
X138200000Y-81534000D02*
X143534000Y-81534000D01*
X143534000Y-81534000D02*
X143534000Y-80010000D01*
X143534000Y-80010000D02*
X138200000Y-80010000D01*
X138200000Y-80010000D02*
X138200000Y-81534000D01*
X138200000Y-74676000D02*
X143534000Y-74676000D01*
X143534000Y-74676000D02*
X143534000Y-72898000D01*
X143534000Y-72898000D02*
X138200000Y-72898000D01*
X138200000Y-72898000D02*
X138200000Y-74676000D01*
X138200000Y-78232000D02*
X143534000Y-78232000D01*
X143534000Y-78232000D02*
X143534000Y-76581000D01*
X143534000Y-76581000D02*
X138200000Y-76581000D01*
X138200000Y-76581000D02*
X138200000Y-78232000D01*
X138200000Y-71120000D02*
X143534000Y-71120000D01*
X143534000Y-71120000D02*
X143534000Y-81534000D01*
X143534000Y-81534000D02*
X138200000Y-81534000D01*
X138200000Y-81534000D02*
X138200000Y-71120000D01*
X138200000Y-71120000D02*
X140867000Y-71120000D01*
X140867000Y-71120000D02*
X140867000Y-81534000D01*
X140867000Y-81534000D02*
X138200000Y-81534000D01*
X138200000Y-81534000D02*
X138200000Y-71120000D01*
D11*
X142064000Y-70928666D02*
X142464000Y-70928666D01*
X142264000Y-70928666D02*
X142264000Y-70228666D01*
X142330666Y-70328666D01*
X142397333Y-70395333D01*
X142464000Y-70428666D01*
X140036666Y-75942000D02*
X140070000Y-75975333D01*
X140170000Y-76008666D01*
X140236666Y-76008666D01*
X140336666Y-75975333D01*
X140403333Y-75908666D01*
X140436666Y-75842000D01*
X140470000Y-75708666D01*
X140470000Y-75608666D01*
X140436666Y-75475333D01*
X140403333Y-75408666D01*
X140336666Y-75342000D01*
X140236666Y-75308666D01*
X140170000Y-75308666D01*
X140070000Y-75342000D01*
X140036666Y-75375333D01*
X139736666Y-76008666D02*
X139736666Y-75308666D01*
X139336666Y-76008666D02*
X139636666Y-75608666D01*
X139336666Y-75308666D02*
X139736666Y-75708666D01*
X139036666Y-75742000D02*
X138503333Y-75742000D01*
X138770000Y-76008666D02*
X138770000Y-75475333D01*
X140128666Y-78898000D02*
X140195333Y-78864666D01*
X140295333Y-78864666D01*
X140395333Y-78898000D01*
X140462000Y-78964666D01*
X140495333Y-79031333D01*
X140528666Y-79164666D01*
X140528666Y-79264666D01*
X140495333Y-79398000D01*
X140462000Y-79464666D01*
X140395333Y-79531333D01*
X140295333Y-79564666D01*
X140228666Y-79564666D01*
X140128666Y-79531333D01*
X140095333Y-79498000D01*
X140095333Y-79264666D01*
X140228666Y-79264666D01*
X139795333Y-79564666D02*
X139795333Y-78864666D01*
X139395333Y-79564666D01*
X139395333Y-78864666D01*
X139062000Y-79564666D02*
X139062000Y-78864666D01*
X138895333Y-78864666D01*
X138795333Y-78898000D01*
X138728666Y-78964666D01*
X138695333Y-79031333D01*
X138662000Y-79164666D01*
X138662000Y-79264666D01*
X138695333Y-79398000D01*
X138728666Y-79464666D01*
X138795333Y-79531333D01*
X138895333Y-79564666D01*
X139062000Y-79564666D01*
X143214000Y-72452666D02*
X143214000Y-71752666D01*
X143047333Y-71752666D01*
X142947333Y-71786000D01*
X142880666Y-71852666D01*
X142847333Y-71919333D01*
X142814000Y-72052666D01*
X142814000Y-72152666D01*
X142847333Y-72286000D01*
X142880666Y-72352666D01*
X142947333Y-72419333D01*
X143047333Y-72452666D01*
X143214000Y-72452666D01*
X142547333Y-71819333D02*
X142514000Y-71786000D01*
X142447333Y-71752666D01*
X142280666Y-71752666D01*
X142214000Y-71786000D01*
X142180666Y-71819333D01*
X142147333Y-71886000D01*
X142147333Y-71952666D01*
X142180666Y-72052666D01*
X142580666Y-72452666D01*
X142147333Y-72452666D01*
X141847333Y-72186000D02*
X141314000Y-72186000D01*
X141580666Y-72452666D02*
X141580666Y-71919333D01*
X143214000Y-76008666D02*
X143214000Y-75308666D01*
X143047333Y-75308666D01*
X142947333Y-75342000D01*
X142880666Y-75408666D01*
X142847333Y-75475333D01*
X142814000Y-75608666D01*
X142814000Y-75708666D01*
X142847333Y-75842000D01*
X142880666Y-75908666D01*
X142947333Y-75975333D01*
X143047333Y-76008666D01*
X143214000Y-76008666D01*
X142380666Y-75308666D02*
X142314000Y-75308666D01*
X142247333Y-75342000D01*
X142214000Y-75375333D01*
X142180666Y-75442000D01*
X142147333Y-75575333D01*
X142147333Y-75742000D01*
X142180666Y-75875333D01*
X142214000Y-75942000D01*
X142247333Y-75975333D01*
X142314000Y-76008666D01*
X142380666Y-76008666D01*
X142447333Y-75975333D01*
X142480666Y-75942000D01*
X142514000Y-75875333D01*
X142547333Y-75742000D01*
X142547333Y-75575333D01*
X142514000Y-75442000D01*
X142480666Y-75375333D01*
X142447333Y-75342000D01*
X142380666Y-75308666D01*
X141847333Y-75742000D02*
X141314000Y-75742000D01*
X141580666Y-76008666D02*
X141580666Y-75475333D01*
X142130666Y-81912666D02*
X142264000Y-81912666D01*
X142330666Y-81946000D01*
X142364000Y-81979333D01*
X142430666Y-82079333D01*
X142464000Y-82212666D01*
X142464000Y-82479333D01*
X142430666Y-82546000D01*
X142397333Y-82579333D01*
X142330666Y-82612666D01*
X142197333Y-82612666D01*
X142130666Y-82579333D01*
X142097333Y-82546000D01*
X142064000Y-82479333D01*
X142064000Y-82312666D01*
X142097333Y-82246000D01*
X142130666Y-82212666D01*
X142197333Y-82179333D01*
X142330666Y-82179333D01*
X142397333Y-82212666D01*
X142430666Y-82246000D01*
X142464000Y-82312666D01*
X140036666Y-77720000D02*
X140070000Y-77753333D01*
X140170000Y-77786666D01*
X140236666Y-77786666D01*
X140336666Y-77753333D01*
X140403333Y-77686666D01*
X140436666Y-77620000D01*
X140470000Y-77486666D01*
X140470000Y-77386666D01*
X140436666Y-77253333D01*
X140403333Y-77186666D01*
X140336666Y-77120000D01*
X140236666Y-77086666D01*
X140170000Y-77086666D01*
X140070000Y-77120000D01*
X140036666Y-77153333D01*
X139736666Y-77786666D02*
X139736666Y-77086666D01*
X139336666Y-77786666D02*
X139636666Y-77386666D01*
X139336666Y-77086666D02*
X139736666Y-77486666D01*
X139036666Y-77520000D02*
X138503333Y-77520000D01*
X143214000Y-74230666D02*
X143214000Y-73530666D01*
X143047333Y-73530666D01*
X142947333Y-73564000D01*
X142880666Y-73630666D01*
X142847333Y-73697333D01*
X142814000Y-73830666D01*
X142814000Y-73930666D01*
X142847333Y-74064000D01*
X142880666Y-74130666D01*
X142947333Y-74197333D01*
X143047333Y-74230666D01*
X143214000Y-74230666D01*
X142547333Y-73597333D02*
X142514000Y-73564000D01*
X142447333Y-73530666D01*
X142280666Y-73530666D01*
X142214000Y-73564000D01*
X142180666Y-73597333D01*
X142147333Y-73664000D01*
X142147333Y-73730666D01*
X142180666Y-73830666D01*
X142580666Y-74230666D01*
X142147333Y-74230666D01*
X141847333Y-73964000D02*
X141314000Y-73964000D01*
X139780333Y-81088666D02*
X139413666Y-80622000D01*
X139780333Y-80622000D02*
X139413666Y-81088666D01*
X139603333Y-82612666D02*
X140003333Y-82612666D01*
X139803333Y-82612666D02*
X139803333Y-81912666D01*
X139870000Y-82012666D01*
X139936666Y-82079333D01*
X140003333Y-82112666D01*
X139336666Y-81979333D02*
X139303333Y-81946000D01*
X139236666Y-81912666D01*
X139070000Y-81912666D01*
X139003333Y-81946000D01*
X138970000Y-81979333D01*
X138936666Y-82046000D01*
X138936666Y-82112666D01*
X138970000Y-82212666D01*
X139370000Y-82612666D01*
X138936666Y-82612666D01*
X139703333Y-70228666D02*
X139236666Y-70228666D01*
X139536666Y-70928666D01*
X142797333Y-78898000D02*
X142864000Y-78864666D01*
X142964000Y-78864666D01*
X143064000Y-78898000D01*
X143130666Y-78964666D01*
X143164000Y-79031333D01*
X143197333Y-79164666D01*
X143197333Y-79264666D01*
X143164000Y-79398000D01*
X143130666Y-79464666D01*
X143064000Y-79531333D01*
X142964000Y-79564666D01*
X142897333Y-79564666D01*
X142797333Y-79531333D01*
X142764000Y-79498000D01*
X142764000Y-79264666D01*
X142897333Y-79264666D01*
X142464000Y-79564666D02*
X142464000Y-78864666D01*
X142064000Y-79564666D01*
X142064000Y-78864666D01*
X141730666Y-79564666D02*
X141730666Y-78864666D01*
X141564000Y-78864666D01*
X141464000Y-78898000D01*
X141397333Y-78964666D01*
X141364000Y-79031333D01*
X141330666Y-79164666D01*
X141330666Y-79264666D01*
X141364000Y-79398000D01*
X141397333Y-79464666D01*
X141464000Y-79531333D01*
X141564000Y-79564666D01*
X141730666Y-79564666D01*
X140420000Y-72452666D02*
X140420000Y-71752666D01*
X140253333Y-71752666D01*
X140153333Y-71786000D01*
X140086666Y-71852666D01*
X140053333Y-71919333D01*
X140020000Y-72052666D01*
X140020000Y-72152666D01*
X140053333Y-72286000D01*
X140086666Y-72352666D01*
X140153333Y-72419333D01*
X140253333Y-72452666D01*
X140420000Y-72452666D01*
X139353333Y-72452666D02*
X139753333Y-72452666D01*
X139553333Y-72452666D02*
X139553333Y-71752666D01*
X139620000Y-71852666D01*
X139686666Y-71919333D01*
X139753333Y-71952666D01*
X139053333Y-72186000D02*
X138520000Y-72186000D01*
X138786666Y-72452666D02*
X138786666Y-71919333D01*
X140420000Y-74230666D02*
X140420000Y-73530666D01*
X140253333Y-73530666D01*
X140153333Y-73564000D01*
X140086666Y-73630666D01*
X140053333Y-73697333D01*
X140020000Y-73830666D01*
X140020000Y-73930666D01*
X140053333Y-74064000D01*
X140086666Y-74130666D01*
X140153333Y-74197333D01*
X140253333Y-74230666D01*
X140420000Y-74230666D01*
X139353333Y-74230666D02*
X139753333Y-74230666D01*
X139553333Y-74230666D02*
X139553333Y-73530666D01*
X139620000Y-73630666D01*
X139686666Y-73697333D01*
X139753333Y-73730666D01*
X139053333Y-73964000D02*
X138520000Y-73964000D01*
X142447333Y-81088666D02*
X142080666Y-80622000D01*
X142447333Y-80622000D02*
X142080666Y-81088666D01*
X143214000Y-77786666D02*
X143214000Y-77086666D01*
X143047333Y-77086666D01*
X142947333Y-77120000D01*
X142880666Y-77186666D01*
X142847333Y-77253333D01*
X142814000Y-77386666D01*
X142814000Y-77486666D01*
X142847333Y-77620000D01*
X142880666Y-77686666D01*
X142947333Y-77753333D01*
X143047333Y-77786666D01*
X143214000Y-77786666D01*
X142380666Y-77086666D02*
X142314000Y-77086666D01*
X142247333Y-77120000D01*
X142214000Y-77153333D01*
X142180666Y-77220000D01*
X142147333Y-77353333D01*
X142147333Y-77520000D01*
X142180666Y-77653333D01*
X142214000Y-77720000D01*
X142247333Y-77753333D01*
X142314000Y-77786666D01*
X142380666Y-77786666D01*
X142447333Y-77753333D01*
X142480666Y-77720000D01*
X142514000Y-77653333D01*
X142547333Y-77520000D01*
X142547333Y-77353333D01*
X142514000Y-77220000D01*
X142480666Y-77153333D01*
X142447333Y-77120000D01*
X142380666Y-77086666D01*
X141847333Y-77520000D02*
X141314000Y-77520000D01*
M02*
