M48
; DRILL file {KiCad 5.99.0-unknown-8eca23aabe~115~ubuntu20.04.1} date Tue Feb  2 12:21:55 2021
; FORMAT={-:-/ absolute / inch / decimal}
; #@! TF.CreationDate,2021-02-02T12:21:55+00:00
; #@! TF.GenerationSoftware,Kicad,Pcbnew,5.99.0-unknown-8eca23aabe~115~ubuntu20.04.1
FMAT,2
INCH
T1C0.0118
T2C0.0394
T3C0.0512
%
G90
G05
T1
X5.0394Y-2.6969
X5.0394Y-3.3465
X5.0925Y-2.8071
X5.0925Y-2.9075
X5.0945Y-3.0079
X5.1457Y-2.811
X5.1969Y-3.0059
X5.2564Y-2.8051
X5.3095Y-3.1496
X5.311Y-3.0945
X5.3174Y-2.811
X5.3209Y-2.8543
X5.3209Y-2.9134
X5.3209Y-2.9724
X5.3209Y-3.0315
X5.4237Y-2.8543
X5.4237Y-2.9134
X5.4237Y-2.9724
X5.4237Y-3.0315
X5.4276Y-3.1496
X5.6457Y-3.0354
T2
X5.075Y-2.7559
X5.075Y-2.8559
X5.075Y-2.9559
X5.075Y-3.0559
X5.075Y-3.1559
X5.075Y-3.2559
X5.175Y-2.7559
X5.175Y-2.8559
X5.175Y-2.9559
X5.175Y-3.0559
X5.175Y-3.1559
X5.175Y-3.2559
T3
X5.404Y-2.7362
X5.404Y-3.3071
X5.5969Y-2.7126
X5.5969Y-3.3307
T0
M30
