G04 #@! TF.GenerationSoftware,KiCad,Pcbnew,5.99.0-unknown-8eca23aabe~115~ubuntu20.04.1*
G04 #@! TF.CreationDate,2021-02-02T12:21:52+00:00*
G04 #@! TF.ProjectId,dvi_pmod,6476695f-706d-46f6-942e-6b696361645f,rev?*
G04 #@! TF.SameCoordinates,Original*
G04 #@! TF.FileFunction,Copper,L2,Bot*
G04 #@! TF.FilePolarity,Positive*
%FSLAX46Y46*%
G04 Gerber Fmt 4.6, Leading zero omitted, Abs format (unit mm)*
G04 Created by KiCad (PCBNEW 5.99.0-unknown-8eca23aabe~115~ubuntu20.04.1) date 2021-02-02 12:21:52*
%MOMM*%
%LPD*%
G01*
G04 APERTURE LIST*
G04 #@! TA.AperFunction,ComponentPad*
%ADD10R,1.700000X1.700000*%
G04 #@! TD*
G04 #@! TA.AperFunction,ComponentPad*
%ADD11O,1.700000X1.700000*%
G04 #@! TD*
G04 #@! TA.AperFunction,ComponentPad*
%ADD12C,1.900000*%
G04 #@! TD*
G04 #@! TA.AperFunction,ViaPad*
%ADD13C,0.600000*%
G04 #@! TD*
G04 APERTURE END LIST*
D10*
X131445000Y-70000000D03*
D11*
X128905000Y-70000000D03*
X131445000Y-72540000D03*
X128905000Y-72540000D03*
X131445000Y-75080000D03*
X128905000Y-75080000D03*
X131445000Y-77620000D03*
X128905000Y-77620000D03*
X131445000Y-80160000D03*
X128905000Y-80160000D03*
X131445000Y-82700000D03*
X128905000Y-82700000D03*
D12*
X137262000Y-69500000D03*
X142162000Y-68900000D03*
X142162000Y-84600000D03*
X137262000Y-84000000D03*
D13*
X135150000Y-77000000D03*
X135150000Y-75500000D03*
X135150000Y-74000000D03*
X137762000Y-72500000D03*
X137762000Y-74000000D03*
X137762000Y-75500000D03*
X137762000Y-77000000D03*
X128000000Y-68500000D03*
X128000000Y-85000000D03*
X135062000Y-71400000D03*
X133512000Y-71250000D03*
X143400000Y-77100000D03*
X137862000Y-80000000D03*
X132000000Y-76350000D03*
X129400000Y-76400000D03*
X129350000Y-73850000D03*
X129350000Y-71300000D03*
X135150000Y-72500000D03*
X134862000Y-80000000D03*
X130700000Y-71400000D03*
X134900000Y-78600000D03*
G04 #@! TA.AperFunction,Conductor*
G36*
X141530297Y-67718907D02*
G01*
X141566261Y-67768407D01*
X141566261Y-67829593D01*
X141530297Y-67879093D01*
X141522724Y-67884081D01*
X141457617Y-67922816D01*
X141450312Y-67928123D01*
X141417659Y-67956758D01*
X141410841Y-67968218D01*
X141411164Y-67971736D01*
X141412532Y-67973755D01*
X142150914Y-68712137D01*
X142162797Y-68718191D01*
X142167828Y-68717395D01*
X142908197Y-67977026D01*
X142914251Y-67965143D01*
X142909712Y-67936481D01*
X142911555Y-67936189D01*
X142905647Y-67919151D01*
X142923410Y-67860601D01*
X142972195Y-67823673D01*
X143033369Y-67822474D01*
X143049565Y-67828997D01*
X143157225Y-67883852D01*
X143163986Y-67887639D01*
X143185964Y-67901106D01*
X143189670Y-67903378D01*
X143196131Y-67907696D01*
X143323733Y-68000405D01*
X143329828Y-68005209D01*
X143352724Y-68024764D01*
X143358419Y-68030028D01*
X143469971Y-68141580D01*
X143475247Y-68147289D01*
X143494785Y-68170165D01*
X143499597Y-68176269D01*
X143592308Y-68303874D01*
X143596622Y-68310330D01*
X143612351Y-68335998D01*
X143616148Y-68342779D01*
X143687766Y-68483336D01*
X143691015Y-68490383D01*
X143702523Y-68518165D01*
X143705212Y-68525451D01*
X143735989Y-68620172D01*
X143753964Y-68675494D01*
X143756073Y-68682975D01*
X143763095Y-68712223D01*
X143764612Y-68719848D01*
X143789288Y-68875643D01*
X143790202Y-68883363D01*
X143793415Y-68924190D01*
X143793704Y-68930164D01*
X143795430Y-69025622D01*
X143797098Y-69032366D01*
X143797106Y-69032400D01*
X143800000Y-69056161D01*
X143800000Y-84443706D01*
X143797065Y-84467634D01*
X143795433Y-84474186D01*
X143793703Y-84569835D01*
X143793703Y-84569845D01*
X143793414Y-84575822D01*
X143790202Y-84616635D01*
X143789288Y-84624351D01*
X143779523Y-84686011D01*
X143764613Y-84780149D01*
X143763097Y-84787770D01*
X143756076Y-84817016D01*
X143753971Y-84824484D01*
X143715672Y-84942358D01*
X143705219Y-84974529D01*
X143702528Y-84981821D01*
X143691015Y-85009616D01*
X143687763Y-85016671D01*
X143616153Y-85157215D01*
X143616148Y-85157224D01*
X143612359Y-85163990D01*
X143596625Y-85189666D01*
X143592317Y-85196114D01*
X143499587Y-85323745D01*
X143494795Y-85329824D01*
X143482224Y-85344542D01*
X143475243Y-85352716D01*
X143469967Y-85358424D01*
X143358420Y-85469971D01*
X143352711Y-85475247D01*
X143329835Y-85494785D01*
X143323731Y-85499597D01*
X143196125Y-85592309D01*
X143189673Y-85596620D01*
X143177681Y-85603969D01*
X143163996Y-85612355D01*
X143157215Y-85616153D01*
X143038400Y-85676692D01*
X142977968Y-85686263D01*
X142923451Y-85658485D01*
X142895674Y-85603969D01*
X142905245Y-85543537D01*
X142909729Y-85535653D01*
X142912616Y-85531077D01*
X142912430Y-85528245D01*
X142910428Y-85525205D01*
X142173086Y-84787863D01*
X142161203Y-84781809D01*
X142156172Y-84782605D01*
X141414070Y-85524707D01*
X141408016Y-85536590D01*
X141408507Y-85539693D01*
X141526726Y-85618684D01*
X141564606Y-85666734D01*
X141567008Y-85727873D01*
X141533015Y-85778746D01*
X141471725Y-85800000D01*
X128556294Y-85800000D01*
X128532366Y-85797065D01*
X128531243Y-85796785D01*
X128531241Y-85796785D01*
X128525814Y-85795433D01*
X128430150Y-85793703D01*
X128424178Y-85793414D01*
X128383365Y-85790202D01*
X128375649Y-85789288D01*
X128279446Y-85774052D01*
X128219851Y-85764613D01*
X128212230Y-85763097D01*
X128204196Y-85761168D01*
X128182969Y-85756072D01*
X128175516Y-85753971D01*
X128025462Y-85705216D01*
X128018179Y-85702528D01*
X127990384Y-85691015D01*
X127983324Y-85687761D01*
X127961600Y-85676692D01*
X127842770Y-85616145D01*
X127836003Y-85612355D01*
X127810327Y-85596620D01*
X127803886Y-85592316D01*
X127676255Y-85499587D01*
X127670176Y-85494795D01*
X127647282Y-85475241D01*
X127641576Y-85469967D01*
X127530029Y-85358420D01*
X127524753Y-85352711D01*
X127505215Y-85329835D01*
X127500403Y-85323731D01*
X127497066Y-85319137D01*
X127407689Y-85196121D01*
X127403375Y-85189666D01*
X127403374Y-85189663D01*
X127387645Y-85163996D01*
X127383847Y-85157215D01*
X127312238Y-85016673D01*
X127308984Y-85009614D01*
X127297474Y-84981827D01*
X127294784Y-84974534D01*
X127282455Y-84936590D01*
X136508016Y-84936590D01*
X136508507Y-84939694D01*
X136683242Y-85056448D01*
X136691203Y-85060770D01*
X136885456Y-85144228D01*
X136894067Y-85147026D01*
X137100290Y-85193690D01*
X137109249Y-85194869D01*
X137320532Y-85203171D01*
X137329559Y-85202697D01*
X137538808Y-85172358D01*
X137547599Y-85170247D01*
X137747821Y-85102281D01*
X137756079Y-85098604D01*
X137940556Y-84995292D01*
X137948011Y-84990169D01*
X138005498Y-84942358D01*
X138012616Y-84931076D01*
X138012430Y-84928245D01*
X138010428Y-84925205D01*
X137273086Y-84187863D01*
X137261203Y-84181809D01*
X137256172Y-84182605D01*
X136514070Y-84924707D01*
X136508016Y-84936590D01*
X127282455Y-84936590D01*
X127246034Y-84824499D01*
X127243931Y-84817044D01*
X127236900Y-84787757D01*
X127235387Y-84780151D01*
X127230624Y-84750078D01*
X127210711Y-84624352D01*
X127209798Y-84616640D01*
X127208261Y-84597101D01*
X127206585Y-84575806D01*
X127206296Y-84569835D01*
X127204704Y-84481792D01*
X127204570Y-84474378D01*
X127202894Y-84467598D01*
X127200000Y-84443839D01*
X127200000Y-83972984D01*
X136057710Y-83972984D01*
X136071539Y-84183978D01*
X136072952Y-84192899D01*
X136124999Y-84397835D01*
X136128019Y-84406363D01*
X136216535Y-84598369D01*
X136221066Y-84606216D01*
X136318825Y-84744542D01*
X136329512Y-84752523D01*
X136330261Y-84752533D01*
X136336392Y-84748831D01*
X137074137Y-84011086D01*
X137079379Y-84000797D01*
X137443809Y-84000797D01*
X137444605Y-84005828D01*
X138183245Y-84744468D01*
X138195128Y-84750522D01*
X138197932Y-84750078D01*
X138200774Y-84747808D01*
X138252169Y-84686011D01*
X138257292Y-84678556D01*
X138316415Y-84572984D01*
X140957710Y-84572984D01*
X140971539Y-84783978D01*
X140972952Y-84792899D01*
X141024999Y-84997835D01*
X141028019Y-85006363D01*
X141116535Y-85198369D01*
X141121066Y-85206216D01*
X141218825Y-85344542D01*
X141229512Y-85352523D01*
X141230261Y-85352533D01*
X141236392Y-85348831D01*
X141974137Y-84611086D01*
X141979379Y-84600797D01*
X142343809Y-84600797D01*
X142344605Y-84605828D01*
X143083245Y-85344468D01*
X143095128Y-85350522D01*
X143097932Y-85350078D01*
X143100774Y-85347808D01*
X143152169Y-85286011D01*
X143157292Y-85278556D01*
X143260604Y-85094079D01*
X143264281Y-85085821D01*
X143332247Y-84885599D01*
X143334358Y-84876808D01*
X143364929Y-84665964D01*
X143365426Y-84660140D01*
X143366924Y-84602914D01*
X143366734Y-84597101D01*
X143347237Y-84384924D01*
X143345590Y-84376038D01*
X143288196Y-84172536D01*
X143284955Y-84164093D01*
X143191442Y-83974466D01*
X143186712Y-83966748D01*
X143104317Y-83856406D01*
X143093425Y-83848708D01*
X143091976Y-83848727D01*
X143086883Y-83851894D01*
X142349863Y-84588914D01*
X142343809Y-84600797D01*
X141979379Y-84600797D01*
X141980191Y-84599203D01*
X141979395Y-84594172D01*
X141240747Y-83855524D01*
X141228864Y-83849470D01*
X141226747Y-83849805D01*
X141223017Y-83852866D01*
X141154212Y-83940145D01*
X141149288Y-83947728D01*
X141050835Y-84134855D01*
X141047381Y-84143195D01*
X140984679Y-84345127D01*
X140982798Y-84353977D01*
X140957946Y-84563952D01*
X140957710Y-84572984D01*
X138316415Y-84572984D01*
X138360604Y-84494079D01*
X138364281Y-84485821D01*
X138432247Y-84285599D01*
X138434358Y-84276808D01*
X138464929Y-84065964D01*
X138465426Y-84060140D01*
X138466924Y-84002914D01*
X138466734Y-83997101D01*
X138447237Y-83784924D01*
X138445590Y-83776038D01*
X138415181Y-83668218D01*
X141410841Y-83668218D01*
X141411164Y-83671736D01*
X141412532Y-83673755D01*
X142150914Y-84412137D01*
X142162797Y-84418191D01*
X142167828Y-84417395D01*
X142908197Y-83677026D01*
X142914251Y-83665143D01*
X142913591Y-83660976D01*
X142912843Y-83659987D01*
X142898888Y-83647088D01*
X142891723Y-83641589D01*
X142712896Y-83528758D01*
X142704843Y-83524655D01*
X142508451Y-83446303D01*
X142499792Y-83443738D01*
X142292411Y-83402487D01*
X142283418Y-83401542D01*
X142071997Y-83398774D01*
X142062979Y-83399484D01*
X141854595Y-83435291D01*
X141845868Y-83437629D01*
X141647493Y-83510814D01*
X141639331Y-83514707D01*
X141457617Y-83622816D01*
X141450312Y-83628123D01*
X141417659Y-83656758D01*
X141410841Y-83668218D01*
X138415181Y-83668218D01*
X138388196Y-83572536D01*
X138384955Y-83564093D01*
X138291442Y-83374466D01*
X138286712Y-83366748D01*
X138204317Y-83256406D01*
X138193425Y-83248708D01*
X138191976Y-83248727D01*
X138186883Y-83251894D01*
X137449863Y-83988914D01*
X137443809Y-84000797D01*
X137079379Y-84000797D01*
X137080191Y-83999203D01*
X137079395Y-83994172D01*
X136340747Y-83255524D01*
X136328864Y-83249470D01*
X136326747Y-83249805D01*
X136323017Y-83252866D01*
X136254212Y-83340145D01*
X136249288Y-83347728D01*
X136150835Y-83534855D01*
X136147381Y-83543195D01*
X136084679Y-83745127D01*
X136082798Y-83753977D01*
X136057946Y-83963952D01*
X136057710Y-83972984D01*
X127200000Y-83972984D01*
X127200000Y-82685263D01*
X127849603Y-82685263D01*
X127857092Y-82774445D01*
X127863126Y-82846303D01*
X127866840Y-82890538D01*
X127868173Y-82895186D01*
X127868173Y-82895187D01*
X127916908Y-83065143D01*
X127923621Y-83088555D01*
X128017782Y-83271773D01*
X128145737Y-83433212D01*
X128149417Y-83436344D01*
X128149419Y-83436346D01*
X128178029Y-83460695D01*
X128302612Y-83566723D01*
X128306835Y-83569083D01*
X128306839Y-83569086D01*
X128412474Y-83628123D01*
X128482432Y-83667221D01*
X128487030Y-83668715D01*
X128673742Y-83729382D01*
X128673745Y-83729383D01*
X128678347Y-83730878D01*
X128882895Y-83755269D01*
X128887717Y-83754898D01*
X128887720Y-83754898D01*
X129083458Y-83739837D01*
X129083463Y-83739836D01*
X129088286Y-83739465D01*
X129286695Y-83684068D01*
X129300636Y-83677026D01*
X129466244Y-83593371D01*
X129466246Y-83593370D01*
X129470565Y-83591188D01*
X129632893Y-83464363D01*
X129636055Y-83460700D01*
X129636060Y-83460695D01*
X129764332Y-83312089D01*
X129767496Y-83308424D01*
X129790766Y-83267463D01*
X129866858Y-83133517D01*
X129866859Y-83133514D01*
X129869247Y-83129311D01*
X129884355Y-83083897D01*
X129932743Y-82938435D01*
X129932743Y-82938433D01*
X129934270Y-82933844D01*
X129937180Y-82910814D01*
X129959740Y-82732225D01*
X129960088Y-82729471D01*
X129960500Y-82700000D01*
X129959055Y-82685263D01*
X130389603Y-82685263D01*
X130397092Y-82774445D01*
X130403126Y-82846303D01*
X130406840Y-82890538D01*
X130408173Y-82895186D01*
X130408173Y-82895187D01*
X130456908Y-83065143D01*
X130463621Y-83088555D01*
X130557782Y-83271773D01*
X130685737Y-83433212D01*
X130689417Y-83436344D01*
X130689419Y-83436346D01*
X130718029Y-83460695D01*
X130842612Y-83566723D01*
X130846835Y-83569083D01*
X130846839Y-83569086D01*
X130952474Y-83628123D01*
X131022432Y-83667221D01*
X131027030Y-83668715D01*
X131213742Y-83729382D01*
X131213745Y-83729383D01*
X131218347Y-83730878D01*
X131422895Y-83755269D01*
X131427717Y-83754898D01*
X131427720Y-83754898D01*
X131623458Y-83739837D01*
X131623463Y-83739836D01*
X131628286Y-83739465D01*
X131826695Y-83684068D01*
X131840636Y-83677026D01*
X132006244Y-83593371D01*
X132006246Y-83593370D01*
X132010565Y-83591188D01*
X132172893Y-83464363D01*
X132176055Y-83460700D01*
X132176060Y-83460695D01*
X132304332Y-83312089D01*
X132307496Y-83308424D01*
X132330766Y-83267463D01*
X132406858Y-83133517D01*
X132406859Y-83133514D01*
X132409247Y-83129311D01*
X132424355Y-83083897D01*
X132429571Y-83068218D01*
X136510841Y-83068218D01*
X136511164Y-83071736D01*
X136512532Y-83073755D01*
X137250914Y-83812137D01*
X137262797Y-83818191D01*
X137267828Y-83817395D01*
X138008197Y-83077026D01*
X138014251Y-83065143D01*
X138013591Y-83060976D01*
X138012843Y-83059987D01*
X137998888Y-83047088D01*
X137991723Y-83041589D01*
X137812896Y-82928758D01*
X137804843Y-82924655D01*
X137608451Y-82846303D01*
X137599792Y-82843738D01*
X137392411Y-82802487D01*
X137383418Y-82801542D01*
X137171997Y-82798774D01*
X137162979Y-82799484D01*
X136954595Y-82835291D01*
X136945868Y-82837629D01*
X136747493Y-82910814D01*
X136739331Y-82914707D01*
X136557617Y-83022816D01*
X136550312Y-83028123D01*
X136517659Y-83056758D01*
X136510841Y-83068218D01*
X132429571Y-83068218D01*
X132472743Y-82938435D01*
X132472743Y-82938433D01*
X132474270Y-82933844D01*
X132477180Y-82910814D01*
X132499740Y-82732225D01*
X132500088Y-82729471D01*
X132500500Y-82700000D01*
X132480398Y-82494986D01*
X132477493Y-82485362D01*
X132422256Y-82302412D01*
X132420858Y-82297780D01*
X132324148Y-82115895D01*
X132193952Y-81956259D01*
X132035228Y-81824951D01*
X131854023Y-81726973D01*
X131790952Y-81707449D01*
X131661859Y-81667488D01*
X131661855Y-81667487D01*
X131657238Y-81666058D01*
X131652431Y-81665553D01*
X131652427Y-81665552D01*
X131457185Y-81645032D01*
X131457183Y-81645032D01*
X131452369Y-81644526D01*
X131384372Y-81650714D01*
X131252039Y-81662757D01*
X131252036Y-81662758D01*
X131247219Y-81663196D01*
X131242577Y-81664562D01*
X131242573Y-81664563D01*
X131054250Y-81719989D01*
X131054247Y-81719990D01*
X131049603Y-81721357D01*
X131045309Y-81723602D01*
X130871344Y-81814548D01*
X130871340Y-81814551D01*
X130867047Y-81816795D01*
X130863271Y-81819831D01*
X130863268Y-81819833D01*
X130856903Y-81824951D01*
X130706505Y-81945874D01*
X130694643Y-81960011D01*
X130577202Y-82099971D01*
X130577199Y-82099975D01*
X130574093Y-82103677D01*
X130474853Y-82284194D01*
X130412565Y-82480549D01*
X130389603Y-82685263D01*
X129959055Y-82685263D01*
X129940398Y-82494986D01*
X129937493Y-82485362D01*
X129882256Y-82302412D01*
X129880858Y-82297780D01*
X129784148Y-82115895D01*
X129653952Y-81956259D01*
X129495228Y-81824951D01*
X129314023Y-81726973D01*
X129250952Y-81707449D01*
X129121859Y-81667488D01*
X129121855Y-81667487D01*
X129117238Y-81666058D01*
X129112431Y-81665553D01*
X129112427Y-81665552D01*
X128917185Y-81645032D01*
X128917183Y-81645032D01*
X128912369Y-81644526D01*
X128844372Y-81650714D01*
X128712039Y-81662757D01*
X128712036Y-81662758D01*
X128707219Y-81663196D01*
X128702577Y-81664562D01*
X128702573Y-81664563D01*
X128514250Y-81719989D01*
X128514247Y-81719990D01*
X128509603Y-81721357D01*
X128505309Y-81723602D01*
X128331344Y-81814548D01*
X128331340Y-81814551D01*
X128327047Y-81816795D01*
X128323271Y-81819831D01*
X128323268Y-81819833D01*
X128316903Y-81824951D01*
X128166505Y-81945874D01*
X128154643Y-81960011D01*
X128037202Y-82099971D01*
X128037199Y-82099975D01*
X128034093Y-82103677D01*
X127934853Y-82284194D01*
X127872565Y-82480549D01*
X127849603Y-82685263D01*
X127200000Y-82685263D01*
X127200000Y-80297264D01*
X127811406Y-80297264D01*
X127842996Y-80463655D01*
X127845614Y-80472665D01*
X127919575Y-80658993D01*
X127923855Y-80667356D01*
X128031711Y-80836331D01*
X128037489Y-80843727D01*
X128175359Y-80989267D01*
X128182429Y-80995435D01*
X128345337Y-81112280D01*
X128353441Y-81116996D01*
X128535504Y-81200928D01*
X128544352Y-81204027D01*
X128739008Y-81252019D01*
X128748280Y-81253388D01*
X128764341Y-81254216D01*
X128777222Y-81250753D01*
X128779672Y-81247721D01*
X128780000Y-81245947D01*
X128780000Y-80300680D01*
X128777583Y-80293243D01*
X129030000Y-80293243D01*
X129030000Y-81237543D01*
X129034122Y-81250228D01*
X129035404Y-81251160D01*
X129041152Y-81251666D01*
X129156413Y-81235569D01*
X129165537Y-81233396D01*
X129355268Y-81168622D01*
X129363812Y-81164764D01*
X129537867Y-81065283D01*
X129545532Y-81059876D01*
X129697630Y-80929282D01*
X129704143Y-80922514D01*
X129828800Y-80765518D01*
X129833911Y-80757647D01*
X129926632Y-80579911D01*
X129930166Y-80571207D01*
X129987606Y-80379141D01*
X129989427Y-80369944D01*
X129996409Y-80300600D01*
X129995685Y-80297264D01*
X130351406Y-80297264D01*
X130382996Y-80463655D01*
X130385614Y-80472665D01*
X130459575Y-80658993D01*
X130463855Y-80667356D01*
X130571711Y-80836331D01*
X130577489Y-80843727D01*
X130715359Y-80989267D01*
X130722429Y-80995435D01*
X130885337Y-81112280D01*
X130893441Y-81116996D01*
X131075504Y-81200928D01*
X131084352Y-81204027D01*
X131279008Y-81252019D01*
X131288280Y-81253388D01*
X131304341Y-81254216D01*
X131317222Y-81250753D01*
X131319672Y-81247721D01*
X131320000Y-81245947D01*
X131320000Y-80300680D01*
X131317583Y-80293243D01*
X131570000Y-80293243D01*
X131570000Y-81237543D01*
X131574122Y-81250228D01*
X131575404Y-81251160D01*
X131581152Y-81251666D01*
X131696413Y-81235569D01*
X131705537Y-81233396D01*
X131895268Y-81168622D01*
X131903812Y-81164764D01*
X132077867Y-81065283D01*
X132085532Y-81059876D01*
X132237630Y-80929282D01*
X132244143Y-80922514D01*
X132368800Y-80765518D01*
X132373911Y-80757647D01*
X132466632Y-80579911D01*
X132470166Y-80571207D01*
X132527606Y-80379141D01*
X132529427Y-80369944D01*
X132536409Y-80300600D01*
X132533579Y-80287567D01*
X132531634Y-80285830D01*
X132527685Y-80285000D01*
X131585680Y-80285000D01*
X131572995Y-80289122D01*
X131570000Y-80293243D01*
X131317583Y-80293243D01*
X131315878Y-80287995D01*
X131311757Y-80285000D01*
X130364758Y-80285000D01*
X130352073Y-80289122D01*
X130351908Y-80289348D01*
X130351406Y-80297264D01*
X129995685Y-80297264D01*
X129993579Y-80287567D01*
X129991634Y-80285830D01*
X129987685Y-80285000D01*
X129045680Y-80285000D01*
X129032995Y-80289122D01*
X129030000Y-80293243D01*
X128777583Y-80293243D01*
X128775878Y-80287995D01*
X128771757Y-80285000D01*
X127824758Y-80285000D01*
X127812073Y-80289122D01*
X127811908Y-80289348D01*
X127811406Y-80297264D01*
X127200000Y-80297264D01*
X127200000Y-80019613D01*
X127811632Y-80019613D01*
X127813245Y-80032849D01*
X127813341Y-80032952D01*
X127821245Y-80035000D01*
X128764320Y-80035000D01*
X128777005Y-80030878D01*
X128780000Y-80026757D01*
X128780000Y-79080283D01*
X128779260Y-79078006D01*
X129030000Y-79078006D01*
X129030000Y-80019320D01*
X129034122Y-80032005D01*
X129038243Y-80035000D01*
X129982394Y-80035000D01*
X129995079Y-80030878D01*
X129996693Y-80028657D01*
X129997108Y-80024881D01*
X129996605Y-80019613D01*
X130351632Y-80019613D01*
X130353245Y-80032849D01*
X130353341Y-80032952D01*
X130361245Y-80035000D01*
X131304320Y-80035000D01*
X131317005Y-80030878D01*
X131320000Y-80026757D01*
X131320000Y-79080283D01*
X131319260Y-79078006D01*
X131570000Y-79078006D01*
X131570000Y-80019320D01*
X131574122Y-80032005D01*
X131578243Y-80035000D01*
X132522394Y-80035000D01*
X132535079Y-80030878D01*
X132536693Y-80028657D01*
X132537108Y-80024881D01*
X132530512Y-79955743D01*
X132528738Y-79946531D01*
X132472302Y-79754156D01*
X132468821Y-79745453D01*
X132377026Y-79567222D01*
X132371956Y-79559326D01*
X132248122Y-79401677D01*
X132241653Y-79394884D01*
X132090237Y-79263491D01*
X132082595Y-79258041D01*
X131909066Y-79157652D01*
X131900543Y-79153750D01*
X131711151Y-79087981D01*
X131702050Y-79085763D01*
X131585516Y-79068867D01*
X131572372Y-79071125D01*
X131571363Y-79072162D01*
X131570000Y-79078006D01*
X131319260Y-79078006D01*
X131315878Y-79067598D01*
X131312612Y-79065225D01*
X131311067Y-79065017D01*
X131294012Y-79065806D01*
X131284721Y-79067129D01*
X131089830Y-79114098D01*
X131080958Y-79117152D01*
X130898460Y-79200129D01*
X130890328Y-79204805D01*
X130726813Y-79320794D01*
X130719713Y-79326923D01*
X130581080Y-79471740D01*
X130575266Y-79479103D01*
X130466517Y-79647525D01*
X130462206Y-79655841D01*
X130387262Y-79841800D01*
X130384602Y-79850780D01*
X130351632Y-80019613D01*
X129996605Y-80019613D01*
X129990512Y-79955743D01*
X129988738Y-79946531D01*
X129932302Y-79754156D01*
X129928821Y-79745453D01*
X129837026Y-79567222D01*
X129831956Y-79559326D01*
X129708122Y-79401677D01*
X129701653Y-79394884D01*
X129550237Y-79263491D01*
X129542595Y-79258041D01*
X129369066Y-79157652D01*
X129360543Y-79153750D01*
X129171151Y-79087981D01*
X129162050Y-79085763D01*
X129045516Y-79068867D01*
X129032372Y-79071125D01*
X129031363Y-79072162D01*
X129030000Y-79078006D01*
X128779260Y-79078006D01*
X128775878Y-79067598D01*
X128772612Y-79065225D01*
X128771067Y-79065017D01*
X128754012Y-79065806D01*
X128744721Y-79067129D01*
X128549830Y-79114098D01*
X128540958Y-79117152D01*
X128358460Y-79200129D01*
X128350328Y-79204805D01*
X128186813Y-79320794D01*
X128179713Y-79326923D01*
X128041080Y-79471740D01*
X128035266Y-79479103D01*
X127926517Y-79647525D01*
X127922206Y-79655841D01*
X127847262Y-79841800D01*
X127844602Y-79850780D01*
X127811632Y-80019613D01*
X127200000Y-80019613D01*
X127200000Y-77605263D01*
X127849603Y-77605263D01*
X127866840Y-77810538D01*
X127923621Y-78008555D01*
X128017782Y-78191773D01*
X128145737Y-78353212D01*
X128302612Y-78486723D01*
X128306835Y-78489083D01*
X128306839Y-78489086D01*
X128423453Y-78554259D01*
X128482432Y-78587221D01*
X128487030Y-78588715D01*
X128673742Y-78649382D01*
X128673745Y-78649383D01*
X128678347Y-78650878D01*
X128882895Y-78675269D01*
X128887717Y-78674898D01*
X128887720Y-78674898D01*
X129083458Y-78659837D01*
X129083463Y-78659836D01*
X129088286Y-78659465D01*
X129286695Y-78604068D01*
X129317089Y-78588715D01*
X129466244Y-78513371D01*
X129466246Y-78513370D01*
X129470565Y-78511188D01*
X129632893Y-78384363D01*
X129636055Y-78380700D01*
X129636060Y-78380695D01*
X129764332Y-78232089D01*
X129767496Y-78228424D01*
X129790766Y-78187463D01*
X129866858Y-78053517D01*
X129866859Y-78053514D01*
X129869247Y-78049311D01*
X129884355Y-78003897D01*
X129932743Y-77858435D01*
X129932743Y-77858433D01*
X129934270Y-77853844D01*
X129939154Y-77815187D01*
X129959740Y-77652225D01*
X129960088Y-77649471D01*
X129960500Y-77620000D01*
X129959055Y-77605263D01*
X130389603Y-77605263D01*
X130406840Y-77810538D01*
X130463621Y-78008555D01*
X130557782Y-78191773D01*
X130685737Y-78353212D01*
X130842612Y-78486723D01*
X130846835Y-78489083D01*
X130846839Y-78489086D01*
X130963453Y-78554259D01*
X131022432Y-78587221D01*
X131027030Y-78588715D01*
X131213742Y-78649382D01*
X131213745Y-78649383D01*
X131218347Y-78650878D01*
X131422895Y-78675269D01*
X131427717Y-78674898D01*
X131427720Y-78674898D01*
X131623458Y-78659837D01*
X131623463Y-78659836D01*
X131628286Y-78659465D01*
X131826695Y-78604068D01*
X131857089Y-78588715D01*
X132006244Y-78513371D01*
X132006246Y-78513370D01*
X132010565Y-78511188D01*
X132172893Y-78384363D01*
X132176055Y-78380700D01*
X132176060Y-78380695D01*
X132304332Y-78232089D01*
X132307496Y-78228424D01*
X132330766Y-78187463D01*
X132406858Y-78053517D01*
X132406859Y-78053514D01*
X132409247Y-78049311D01*
X132424355Y-78003897D01*
X132472743Y-77858435D01*
X132472743Y-77858433D01*
X132474270Y-77853844D01*
X132479154Y-77815187D01*
X132499740Y-77652225D01*
X132500088Y-77649471D01*
X132500500Y-77620000D01*
X132480398Y-77414986D01*
X132477493Y-77405362D01*
X132422256Y-77222412D01*
X132420858Y-77217780D01*
X132324148Y-77035895D01*
X132193952Y-76876259D01*
X132035228Y-76744951D01*
X131854023Y-76646973D01*
X131790952Y-76627449D01*
X131661859Y-76587488D01*
X131661855Y-76587487D01*
X131657238Y-76586058D01*
X131652431Y-76585553D01*
X131652427Y-76585552D01*
X131457185Y-76565032D01*
X131457183Y-76565032D01*
X131452369Y-76564526D01*
X131384372Y-76570714D01*
X131252039Y-76582757D01*
X131252036Y-76582758D01*
X131247219Y-76583196D01*
X131242577Y-76584562D01*
X131242573Y-76584563D01*
X131054250Y-76639989D01*
X131054247Y-76639990D01*
X131049603Y-76641357D01*
X131045309Y-76643602D01*
X130871344Y-76734548D01*
X130871340Y-76734551D01*
X130867047Y-76736795D01*
X130863271Y-76739831D01*
X130863268Y-76739833D01*
X130856903Y-76744951D01*
X130706505Y-76865874D01*
X130694643Y-76880011D01*
X130577202Y-77019971D01*
X130577199Y-77019975D01*
X130574093Y-77023677D01*
X130474853Y-77204194D01*
X130412565Y-77400549D01*
X130389603Y-77605263D01*
X129959055Y-77605263D01*
X129940398Y-77414986D01*
X129937493Y-77405362D01*
X129882256Y-77222412D01*
X129880858Y-77217780D01*
X129784148Y-77035895D01*
X129653952Y-76876259D01*
X129495228Y-76744951D01*
X129314023Y-76646973D01*
X129250952Y-76627449D01*
X129121859Y-76587488D01*
X129121855Y-76587487D01*
X129117238Y-76586058D01*
X129112431Y-76585553D01*
X129112427Y-76585552D01*
X128917185Y-76565032D01*
X128917183Y-76565032D01*
X128912369Y-76564526D01*
X128844372Y-76570714D01*
X128712039Y-76582757D01*
X128712036Y-76582758D01*
X128707219Y-76583196D01*
X128702577Y-76584562D01*
X128702573Y-76584563D01*
X128514250Y-76639989D01*
X128514247Y-76639990D01*
X128509603Y-76641357D01*
X128505309Y-76643602D01*
X128331344Y-76734548D01*
X128331340Y-76734551D01*
X128327047Y-76736795D01*
X128323271Y-76739831D01*
X128323268Y-76739833D01*
X128316903Y-76744951D01*
X128166505Y-76865874D01*
X128154643Y-76880011D01*
X128037202Y-77019971D01*
X128037199Y-77019975D01*
X128034093Y-77023677D01*
X127934853Y-77204194D01*
X127872565Y-77400549D01*
X127849603Y-77605263D01*
X127200000Y-77605263D01*
X127200000Y-75065263D01*
X127849603Y-75065263D01*
X127866840Y-75270538D01*
X127923621Y-75468555D01*
X128017782Y-75651773D01*
X128145737Y-75813212D01*
X128302612Y-75946723D01*
X128306835Y-75949083D01*
X128306839Y-75949086D01*
X128423453Y-76014259D01*
X128482432Y-76047221D01*
X128487030Y-76048715D01*
X128673742Y-76109382D01*
X128673745Y-76109383D01*
X128678347Y-76110878D01*
X128882895Y-76135269D01*
X128887717Y-76134898D01*
X128887720Y-76134898D01*
X129083458Y-76119837D01*
X129083463Y-76119836D01*
X129088286Y-76119465D01*
X129286695Y-76064068D01*
X129317089Y-76048715D01*
X129466244Y-75973371D01*
X129466246Y-75973370D01*
X129470565Y-75971188D01*
X129632893Y-75844363D01*
X129636055Y-75840700D01*
X129636060Y-75840695D01*
X129764332Y-75692089D01*
X129767496Y-75688424D01*
X129790766Y-75647463D01*
X129866858Y-75513517D01*
X129866859Y-75513514D01*
X129869247Y-75509311D01*
X129884355Y-75463897D01*
X129932743Y-75318435D01*
X129932743Y-75318433D01*
X129934270Y-75313844D01*
X129939154Y-75275187D01*
X129959740Y-75112225D01*
X129960088Y-75109471D01*
X129960500Y-75080000D01*
X129959055Y-75065263D01*
X130389603Y-75065263D01*
X130406840Y-75270538D01*
X130463621Y-75468555D01*
X130557782Y-75651773D01*
X130685737Y-75813212D01*
X130842612Y-75946723D01*
X130846835Y-75949083D01*
X130846839Y-75949086D01*
X130963453Y-76014259D01*
X131022432Y-76047221D01*
X131027030Y-76048715D01*
X131213742Y-76109382D01*
X131213745Y-76109383D01*
X131218347Y-76110878D01*
X131422895Y-76135269D01*
X131427717Y-76134898D01*
X131427720Y-76134898D01*
X131623458Y-76119837D01*
X131623463Y-76119836D01*
X131628286Y-76119465D01*
X131826695Y-76064068D01*
X131857089Y-76048715D01*
X132006244Y-75973371D01*
X132006246Y-75973370D01*
X132010565Y-75971188D01*
X132172893Y-75844363D01*
X132176055Y-75840700D01*
X132176060Y-75840695D01*
X132304332Y-75692089D01*
X132307496Y-75688424D01*
X132330766Y-75647463D01*
X132406858Y-75513517D01*
X132406859Y-75513514D01*
X132409247Y-75509311D01*
X132424355Y-75463897D01*
X132472743Y-75318435D01*
X132472743Y-75318433D01*
X132474270Y-75313844D01*
X132479154Y-75275187D01*
X132499740Y-75112225D01*
X132500088Y-75109471D01*
X132500500Y-75080000D01*
X132480398Y-74874986D01*
X132477493Y-74865362D01*
X132422256Y-74682412D01*
X132420858Y-74677780D01*
X132324148Y-74495895D01*
X132193952Y-74336259D01*
X132035228Y-74204951D01*
X131854023Y-74106973D01*
X131790952Y-74087449D01*
X131661859Y-74047488D01*
X131661855Y-74047487D01*
X131657238Y-74046058D01*
X131652431Y-74045553D01*
X131652427Y-74045552D01*
X131457185Y-74025032D01*
X131457183Y-74025032D01*
X131452369Y-74024526D01*
X131384372Y-74030714D01*
X131252039Y-74042757D01*
X131252036Y-74042758D01*
X131247219Y-74043196D01*
X131242577Y-74044562D01*
X131242573Y-74044563D01*
X131054250Y-74099989D01*
X131054247Y-74099990D01*
X131049603Y-74101357D01*
X131045309Y-74103602D01*
X130871344Y-74194548D01*
X130871340Y-74194551D01*
X130867047Y-74196795D01*
X130863271Y-74199831D01*
X130863268Y-74199833D01*
X130856903Y-74204951D01*
X130706505Y-74325874D01*
X130694643Y-74340011D01*
X130577202Y-74479971D01*
X130577199Y-74479975D01*
X130574093Y-74483677D01*
X130474853Y-74664194D01*
X130412565Y-74860549D01*
X130389603Y-75065263D01*
X129959055Y-75065263D01*
X129940398Y-74874986D01*
X129937493Y-74865362D01*
X129882256Y-74682412D01*
X129880858Y-74677780D01*
X129784148Y-74495895D01*
X129653952Y-74336259D01*
X129495228Y-74204951D01*
X129314023Y-74106973D01*
X129250952Y-74087449D01*
X129121859Y-74047488D01*
X129121855Y-74047487D01*
X129117238Y-74046058D01*
X129112431Y-74045553D01*
X129112427Y-74045552D01*
X128917185Y-74025032D01*
X128917183Y-74025032D01*
X128912369Y-74024526D01*
X128844372Y-74030714D01*
X128712039Y-74042757D01*
X128712036Y-74042758D01*
X128707219Y-74043196D01*
X128702577Y-74044562D01*
X128702573Y-74044563D01*
X128514250Y-74099989D01*
X128514247Y-74099990D01*
X128509603Y-74101357D01*
X128505309Y-74103602D01*
X128331344Y-74194548D01*
X128331340Y-74194551D01*
X128327047Y-74196795D01*
X128323271Y-74199831D01*
X128323268Y-74199833D01*
X128316903Y-74204951D01*
X128166505Y-74325874D01*
X128154643Y-74340011D01*
X128037202Y-74479971D01*
X128037199Y-74479975D01*
X128034093Y-74483677D01*
X127934853Y-74664194D01*
X127872565Y-74860549D01*
X127849603Y-75065263D01*
X127200000Y-75065263D01*
X127200000Y-72525263D01*
X127849603Y-72525263D01*
X127866840Y-72730538D01*
X127923621Y-72928555D01*
X128017782Y-73111773D01*
X128145737Y-73273212D01*
X128302612Y-73406723D01*
X128306835Y-73409083D01*
X128306839Y-73409086D01*
X128423453Y-73474259D01*
X128482432Y-73507221D01*
X128487030Y-73508715D01*
X128673742Y-73569382D01*
X128673745Y-73569383D01*
X128678347Y-73570878D01*
X128882895Y-73595269D01*
X128887717Y-73594898D01*
X128887720Y-73594898D01*
X129083458Y-73579837D01*
X129083463Y-73579836D01*
X129088286Y-73579465D01*
X129286695Y-73524068D01*
X129317089Y-73508715D01*
X129466244Y-73433371D01*
X129466246Y-73433370D01*
X129470565Y-73431188D01*
X129632893Y-73304363D01*
X129636055Y-73300700D01*
X129636060Y-73300695D01*
X129764332Y-73152089D01*
X129767496Y-73148424D01*
X129790766Y-73107463D01*
X129866858Y-72973517D01*
X129866859Y-72973514D01*
X129869247Y-72969311D01*
X129884355Y-72923897D01*
X129932743Y-72778435D01*
X129932743Y-72778433D01*
X129934270Y-72773844D01*
X129939154Y-72735187D01*
X129959740Y-72572225D01*
X129960088Y-72569471D01*
X129960500Y-72540000D01*
X129959055Y-72525263D01*
X130389603Y-72525263D01*
X130406840Y-72730538D01*
X130463621Y-72928555D01*
X130557782Y-73111773D01*
X130685737Y-73273212D01*
X130842612Y-73406723D01*
X130846835Y-73409083D01*
X130846839Y-73409086D01*
X130963453Y-73474259D01*
X131022432Y-73507221D01*
X131027030Y-73508715D01*
X131213742Y-73569382D01*
X131213745Y-73569383D01*
X131218347Y-73570878D01*
X131422895Y-73595269D01*
X131427717Y-73594898D01*
X131427720Y-73594898D01*
X131623458Y-73579837D01*
X131623463Y-73579836D01*
X131628286Y-73579465D01*
X131826695Y-73524068D01*
X131857089Y-73508715D01*
X132006244Y-73433371D01*
X132006246Y-73433370D01*
X132010565Y-73431188D01*
X132172893Y-73304363D01*
X132176055Y-73300700D01*
X132176060Y-73300695D01*
X132304332Y-73152089D01*
X132307496Y-73148424D01*
X132330766Y-73107463D01*
X132406858Y-72973517D01*
X132406859Y-72973514D01*
X132409247Y-72969311D01*
X132424355Y-72923897D01*
X132472743Y-72778435D01*
X132472743Y-72778433D01*
X132474270Y-72773844D01*
X132479154Y-72735187D01*
X132499740Y-72572225D01*
X132500088Y-72569471D01*
X132500500Y-72540000D01*
X132480398Y-72334986D01*
X132477493Y-72325362D01*
X132422256Y-72142412D01*
X132420858Y-72137780D01*
X132324148Y-71955895D01*
X132193952Y-71796259D01*
X132035228Y-71664951D01*
X131854023Y-71566973D01*
X131790952Y-71547449D01*
X131661859Y-71507488D01*
X131661855Y-71507487D01*
X131657238Y-71506058D01*
X131652431Y-71505553D01*
X131652427Y-71505552D01*
X131457185Y-71485032D01*
X131457183Y-71485032D01*
X131452369Y-71484526D01*
X131384372Y-71490714D01*
X131252039Y-71502757D01*
X131252036Y-71502758D01*
X131247219Y-71503196D01*
X131242577Y-71504562D01*
X131242573Y-71504563D01*
X131054250Y-71559989D01*
X131054247Y-71559990D01*
X131049603Y-71561357D01*
X131045309Y-71563602D01*
X130871344Y-71654548D01*
X130871340Y-71654551D01*
X130867047Y-71656795D01*
X130863271Y-71659831D01*
X130863268Y-71659833D01*
X130856903Y-71664951D01*
X130706505Y-71785874D01*
X130694643Y-71800011D01*
X130577202Y-71939971D01*
X130577199Y-71939975D01*
X130574093Y-71943677D01*
X130474853Y-72124194D01*
X130412565Y-72320549D01*
X130389603Y-72525263D01*
X129959055Y-72525263D01*
X129940398Y-72334986D01*
X129937493Y-72325362D01*
X129882256Y-72142412D01*
X129880858Y-72137780D01*
X129784148Y-71955895D01*
X129653952Y-71796259D01*
X129495228Y-71664951D01*
X129314023Y-71566973D01*
X129250952Y-71547449D01*
X129121859Y-71507488D01*
X129121855Y-71507487D01*
X129117238Y-71506058D01*
X129112431Y-71505553D01*
X129112427Y-71505552D01*
X128917185Y-71485032D01*
X128917183Y-71485032D01*
X128912369Y-71484526D01*
X128844372Y-71490714D01*
X128712039Y-71502757D01*
X128712036Y-71502758D01*
X128707219Y-71503196D01*
X128702577Y-71504562D01*
X128702573Y-71504563D01*
X128514250Y-71559989D01*
X128514247Y-71559990D01*
X128509603Y-71561357D01*
X128505309Y-71563602D01*
X128331344Y-71654548D01*
X128331340Y-71654551D01*
X128327047Y-71656795D01*
X128323271Y-71659831D01*
X128323268Y-71659833D01*
X128316903Y-71664951D01*
X128166505Y-71785874D01*
X128154643Y-71800011D01*
X128037202Y-71939971D01*
X128037199Y-71939975D01*
X128034093Y-71943677D01*
X127934853Y-72124194D01*
X127872565Y-72320549D01*
X127849603Y-72525263D01*
X127200000Y-72525263D01*
X127200000Y-69985263D01*
X127849603Y-69985263D01*
X127854554Y-70044228D01*
X127859101Y-70098369D01*
X127866840Y-70190538D01*
X127868173Y-70195186D01*
X127868173Y-70195187D01*
X127882326Y-70244542D01*
X127923621Y-70388555D01*
X128017782Y-70571773D01*
X128145737Y-70733212D01*
X128302612Y-70866723D01*
X128306835Y-70869083D01*
X128306839Y-70869086D01*
X128413401Y-70928641D01*
X128482432Y-70967221D01*
X128487030Y-70968715D01*
X128673742Y-71029382D01*
X128673745Y-71029383D01*
X128678347Y-71030878D01*
X128882895Y-71055269D01*
X128887717Y-71054898D01*
X128887720Y-71054898D01*
X129083458Y-71039837D01*
X129083463Y-71039836D01*
X129088286Y-71039465D01*
X129286695Y-70984068D01*
X129317089Y-70968715D01*
X129466244Y-70893371D01*
X129466246Y-70893370D01*
X129470565Y-70891188D01*
X129632893Y-70764363D01*
X129636055Y-70760700D01*
X129636060Y-70760695D01*
X129720123Y-70663306D01*
X129767496Y-70608424D01*
X129790766Y-70567463D01*
X129866858Y-70433517D01*
X129866859Y-70433514D01*
X129869247Y-70429311D01*
X129884355Y-70383897D01*
X129932743Y-70238435D01*
X129932743Y-70238433D01*
X129934270Y-70233844D01*
X129939154Y-70195187D01*
X129959740Y-70032225D01*
X129960088Y-70029471D01*
X129960500Y-70000000D01*
X129960230Y-69997244D01*
X129940870Y-69799796D01*
X129940869Y-69799792D01*
X129940398Y-69794986D01*
X129937493Y-69785362D01*
X129897386Y-69652523D01*
X129880858Y-69597780D01*
X129784148Y-69415895D01*
X129653952Y-69256259D01*
X129568539Y-69185599D01*
X129525507Y-69150000D01*
X130389500Y-69150000D01*
X130389500Y-70850000D01*
X130405143Y-70928641D01*
X130449690Y-70995310D01*
X130516359Y-71039857D01*
X130525922Y-71041759D01*
X130525924Y-71041760D01*
X130551200Y-71046787D01*
X130595000Y-71055500D01*
X132295000Y-71055500D01*
X132338800Y-71046787D01*
X132364076Y-71041760D01*
X132364078Y-71041759D01*
X132373641Y-71039857D01*
X132440310Y-70995310D01*
X132484857Y-70928641D01*
X132500500Y-70850000D01*
X132500500Y-70436590D01*
X136508016Y-70436590D01*
X136508507Y-70439694D01*
X136683242Y-70556448D01*
X136691203Y-70560770D01*
X136885456Y-70644228D01*
X136894067Y-70647026D01*
X137100290Y-70693690D01*
X137109249Y-70694869D01*
X137320532Y-70703171D01*
X137329559Y-70702697D01*
X137538808Y-70672358D01*
X137547599Y-70670247D01*
X137747821Y-70602281D01*
X137756079Y-70598604D01*
X137940556Y-70495292D01*
X137948011Y-70490169D01*
X138005498Y-70442358D01*
X138012616Y-70431076D01*
X138012430Y-70428245D01*
X138010428Y-70425205D01*
X137273086Y-69687863D01*
X137261203Y-69681809D01*
X137256172Y-69682605D01*
X136514070Y-70424707D01*
X136508016Y-70436590D01*
X132500500Y-70436590D01*
X132500500Y-69472984D01*
X136057710Y-69472984D01*
X136071539Y-69683978D01*
X136072952Y-69692899D01*
X136124999Y-69897835D01*
X136128019Y-69906363D01*
X136216535Y-70098369D01*
X136221066Y-70106216D01*
X136318825Y-70244542D01*
X136329512Y-70252523D01*
X136330261Y-70252533D01*
X136336392Y-70248831D01*
X137074137Y-69511086D01*
X137079379Y-69500797D01*
X137443809Y-69500797D01*
X137444605Y-69505828D01*
X138183245Y-70244468D01*
X138195128Y-70250522D01*
X138197932Y-70250078D01*
X138200774Y-70247808D01*
X138252169Y-70186011D01*
X138257292Y-70178556D01*
X138360604Y-69994079D01*
X138364281Y-69985821D01*
X138414938Y-69836590D01*
X141408016Y-69836590D01*
X141408507Y-69839694D01*
X141583242Y-69956448D01*
X141591203Y-69960770D01*
X141785456Y-70044228D01*
X141794067Y-70047026D01*
X142000290Y-70093690D01*
X142009249Y-70094869D01*
X142220532Y-70103171D01*
X142229559Y-70102697D01*
X142438808Y-70072358D01*
X142447599Y-70070247D01*
X142647821Y-70002281D01*
X142656079Y-69998604D01*
X142840556Y-69895292D01*
X142848011Y-69890169D01*
X142905498Y-69842358D01*
X142912616Y-69831076D01*
X142912430Y-69828245D01*
X142910428Y-69825205D01*
X142173086Y-69087863D01*
X142161203Y-69081809D01*
X142156172Y-69082605D01*
X141414070Y-69824707D01*
X141408016Y-69836590D01*
X138414938Y-69836590D01*
X138432247Y-69785599D01*
X138434358Y-69776808D01*
X138464929Y-69565964D01*
X138465426Y-69560140D01*
X138466924Y-69502914D01*
X138466734Y-69497101D01*
X138447237Y-69284924D01*
X138445590Y-69276038D01*
X138388196Y-69072536D01*
X138384955Y-69064093D01*
X138291442Y-68874466D01*
X138290534Y-68872984D01*
X140957710Y-68872984D01*
X140971539Y-69083978D01*
X140972952Y-69092899D01*
X141024999Y-69297835D01*
X141028019Y-69306363D01*
X141116535Y-69498369D01*
X141121066Y-69506216D01*
X141218825Y-69644542D01*
X141229512Y-69652523D01*
X141230261Y-69652533D01*
X141236392Y-69648831D01*
X141974137Y-68911086D01*
X141979379Y-68900797D01*
X142343809Y-68900797D01*
X142344605Y-68905828D01*
X143083245Y-69644468D01*
X143095128Y-69650522D01*
X143097932Y-69650078D01*
X143100774Y-69647808D01*
X143152169Y-69586011D01*
X143157292Y-69578556D01*
X143260604Y-69394079D01*
X143264281Y-69385821D01*
X143332247Y-69185599D01*
X143334358Y-69176808D01*
X143364929Y-68965964D01*
X143365426Y-68960140D01*
X143366924Y-68902914D01*
X143366734Y-68897101D01*
X143347237Y-68684924D01*
X143345590Y-68676038D01*
X143288196Y-68472536D01*
X143284955Y-68464093D01*
X143191442Y-68274466D01*
X143186712Y-68266748D01*
X143104317Y-68156406D01*
X143093425Y-68148708D01*
X143091976Y-68148727D01*
X143086883Y-68151894D01*
X142349863Y-68888914D01*
X142343809Y-68900797D01*
X141979379Y-68900797D01*
X141980191Y-68899203D01*
X141979395Y-68894172D01*
X141240747Y-68155524D01*
X141228864Y-68149470D01*
X141226747Y-68149805D01*
X141223017Y-68152866D01*
X141154212Y-68240145D01*
X141149288Y-68247728D01*
X141050835Y-68434855D01*
X141047381Y-68443195D01*
X140984679Y-68645127D01*
X140982798Y-68653977D01*
X140957946Y-68863952D01*
X140957710Y-68872984D01*
X138290534Y-68872984D01*
X138286712Y-68866748D01*
X138204317Y-68756406D01*
X138193425Y-68748708D01*
X138191976Y-68748727D01*
X138186883Y-68751894D01*
X137449863Y-69488914D01*
X137443809Y-69500797D01*
X137079379Y-69500797D01*
X137080191Y-69499203D01*
X137079395Y-69494172D01*
X136340747Y-68755524D01*
X136328864Y-68749470D01*
X136326747Y-68749805D01*
X136323017Y-68752866D01*
X136254212Y-68840145D01*
X136249288Y-68847728D01*
X136150835Y-69034855D01*
X136147381Y-69043195D01*
X136084679Y-69245127D01*
X136082798Y-69253977D01*
X136057946Y-69463952D01*
X136057710Y-69472984D01*
X132500500Y-69472984D01*
X132500500Y-69150000D01*
X132484857Y-69071359D01*
X132440310Y-69004690D01*
X132373641Y-68960143D01*
X132364078Y-68958241D01*
X132364076Y-68958240D01*
X132338800Y-68953213D01*
X132295000Y-68944500D01*
X130595000Y-68944500D01*
X130551200Y-68953213D01*
X130525924Y-68958240D01*
X130525922Y-68958241D01*
X130516359Y-68960143D01*
X130449690Y-69004690D01*
X130405143Y-69071359D01*
X130389500Y-69150000D01*
X129525507Y-69150000D01*
X129498955Y-69128034D01*
X129498953Y-69128033D01*
X129495228Y-69124951D01*
X129382674Y-69064093D01*
X129318277Y-69029273D01*
X129318276Y-69029272D01*
X129314023Y-69026973D01*
X129224532Y-68999271D01*
X129121859Y-68967488D01*
X129121855Y-68967487D01*
X129117238Y-68966058D01*
X129112431Y-68965553D01*
X129112427Y-68965552D01*
X128917185Y-68945032D01*
X128917183Y-68945032D01*
X128912369Y-68944526D01*
X128844372Y-68950714D01*
X128712039Y-68962757D01*
X128712036Y-68962758D01*
X128707219Y-68963196D01*
X128702577Y-68964562D01*
X128702573Y-68964563D01*
X128514250Y-69019989D01*
X128514247Y-69019990D01*
X128509603Y-69021357D01*
X128505309Y-69023602D01*
X128331344Y-69114548D01*
X128331340Y-69114551D01*
X128327047Y-69116795D01*
X128323271Y-69119831D01*
X128323268Y-69119833D01*
X128316903Y-69124951D01*
X128166505Y-69245874D01*
X128122905Y-69297835D01*
X128037202Y-69399971D01*
X128037199Y-69399975D01*
X128034093Y-69403677D01*
X127934853Y-69584194D01*
X127933389Y-69588808D01*
X127933388Y-69588811D01*
X127913174Y-69652533D01*
X127872565Y-69780549D01*
X127872025Y-69785361D01*
X127872025Y-69785362D01*
X127859695Y-69895292D01*
X127849603Y-69985263D01*
X127200000Y-69985263D01*
X127200000Y-69056294D01*
X127202935Y-69032366D01*
X127203215Y-69031243D01*
X127203215Y-69031241D01*
X127204567Y-69025814D01*
X127206297Y-68930150D01*
X127206586Y-68924178D01*
X127209798Y-68883363D01*
X127210712Y-68875643D01*
X127210899Y-68874466D01*
X127230813Y-68748727D01*
X127235387Y-68719851D01*
X127236903Y-68712229D01*
X127243458Y-68684924D01*
X127243928Y-68682969D01*
X127246033Y-68675502D01*
X127268315Y-68606928D01*
X127280893Y-68568218D01*
X136510841Y-68568218D01*
X136511164Y-68571736D01*
X136512532Y-68573755D01*
X137250914Y-69312137D01*
X137262797Y-69318191D01*
X137267828Y-69317395D01*
X138008197Y-68577026D01*
X138014251Y-68565143D01*
X138013591Y-68560976D01*
X138012843Y-68559987D01*
X137998888Y-68547088D01*
X137991723Y-68541589D01*
X137812896Y-68428758D01*
X137804843Y-68424655D01*
X137608451Y-68346303D01*
X137599792Y-68343738D01*
X137392411Y-68302487D01*
X137383418Y-68301542D01*
X137171997Y-68298774D01*
X137162979Y-68299484D01*
X136954595Y-68335291D01*
X136945868Y-68337629D01*
X136747493Y-68410814D01*
X136739331Y-68414707D01*
X136557617Y-68522816D01*
X136550312Y-68528123D01*
X136517659Y-68556758D01*
X136510841Y-68568218D01*
X127280893Y-68568218D01*
X127294787Y-68525456D01*
X127297475Y-68518171D01*
X127308985Y-68490383D01*
X127312233Y-68483335D01*
X127383852Y-68342775D01*
X127387639Y-68336014D01*
X127403378Y-68310330D01*
X127407696Y-68303869D01*
X127500405Y-68176267D01*
X127505209Y-68170172D01*
X127524764Y-68147276D01*
X127530028Y-68141581D01*
X127641580Y-68030029D01*
X127647289Y-68024753D01*
X127670165Y-68005215D01*
X127676269Y-68000403D01*
X127708444Y-67977026D01*
X127803874Y-67907692D01*
X127810330Y-67903378D01*
X127835998Y-67887649D01*
X127842779Y-67883852D01*
X127983336Y-67812234D01*
X127990385Y-67808984D01*
X128018172Y-67797474D01*
X128025451Y-67794788D01*
X128175494Y-67746036D01*
X128182975Y-67743927D01*
X128212223Y-67736905D01*
X128219848Y-67735388D01*
X128375643Y-67710712D01*
X128383363Y-67709798D01*
X128424190Y-67706585D01*
X128430164Y-67706296D01*
X128525622Y-67704570D01*
X128532402Y-67702894D01*
X128556161Y-67700000D01*
X141472106Y-67700000D01*
X141530297Y-67718907D01*
G37*
G04 #@! TD.AperFunction*
M02*
